<svg width="29" height="28" fill="none" xmlns="http://www.w3.org/2000/svg">
  <path d="M21.65 8c1.34 0 1.83.14 2.32.4.48.26.87.65 1.13 1.13l.1.19c.2.44.3.96.3 2.13v7.68c-.04 2.02-.3 2.83-.73 3.66a5 5 0 0 1-2.08 2.08c-.9.47-1.79.73-4.24.73H9.97c-2.02-.04-2.83-.3-3.66-.73a5 5 0 0 1-2.08-2.08c-.45-.86-.7-1.71-.73-3.94v-7.4c0-1.34.14-1.83.4-2.32A2.8 2.8 0 0 1 5.03 8.4l.19-.1c.4-.18.88-.28 1.88-.3h14.55Zm0 2H7c-.63.01-.82.06-1.01.16a.73.73 0 0 0-.32.32c-.1.2-.15.42-.16 1.18v7.29c0 1.93.13 2.6.5 3.3a3 3 0 0 0 1.26 1.25c.69.37 1.36.5 3.3.5h7.89c1.93 0 2.6-.13 3.3-.5A3 3 0 0 0 23 22.24c.37-.69.5-1.36.5-3.3v-7.1c0-.91-.04-1.14-.16-1.36a.73.73 0 0 0-.32-.32c-.2-.1-.38-.15-1.01-.16h-.36Zm-2.15 2a1 1 0 1 1 0 2 1 1 0 0 1 0-2Zm-10 0a1 1 0 1 1 0 2 1 1 0 0 1 0-2Zm5-10a6 6 0 0 1 6 6h-2a4 4 0 0 0-8 0h-2a6 6 0 0 1 6-6Z" fill="currentColor"/>
</svg>
